HIERARCHY
ROOT root
{
	OFFSET	0	13.1	24.9
	CHANNELS 6  Xposition Yposition Zposition Xrotation Yrotation Zrotation
	JOINT spine_1
	{
		OFFSET	0	9.99999	0
		CHANNELS 3  Xrotation Yrotation Zrotation
		JOINT spine_2
		{
			OFFSET	0	112	-10
			CHANNELS 3  Xrotation Yrotation Zrotation
			JOINT spine_3
			{
				OFFSET	0	206.5	19.3
				CHANNELS 3  Xrotation Yrotation Zrotation
				JOINT spine_4
				{
					OFFSET	0	110.4	14.6
					CHANNELS 3  Xrotation Yrotation Zrotation
					JOINT neck_1
					{
						OFFSET	0	71.8	-50.3
						CHANNELS 3  Xrotation Yrotation Zrotation
						JOINT neck_2
						{
							OFFSET	0	86.2	-25.8
							CHANNELS 3  Xrotation Yrotation Zrotation
							JOINT head_ee
							{
								OFFSET	0	179.8	-8.7
								CHANNELS 3  Xrotation Yrotation Zrotation
								End Site
								{
									OFFSET	1	0	0
								}
							}
						}
					}
					JOINT left_clavicle
					{
						OFFSET	-43.2	22.4	-70.8
						CHANNELS 3  Xrotation Yrotation Zrotation
						JOINT left_shoulder
						{
							OFFSET	-93.9	-5.79999	48.7
							CHANNELS 3  Xrotation Yrotation Zrotation
							JOINT left_elbow
							{
								OFFSET	-291.4	-30.8	15.2
								CHANNELS 3  Xrotation Yrotation Zrotation
								JOINT left_lowarm_twist
								{
									OFFSET	-110.7	-3.89999	13.6
									CHANNELS 3  Xrotation Yrotation Zrotation
									JOINT left_hand
									{
										OFFSET	-110.7	-3.89999	13.6
										CHANNELS 3  Xrotation Yrotation Zrotation
										JOINT left_ee
										{
											OFFSET	-80.8	-5.10001	12.1
											CHANNELS 3  Xrotation Yrotation Zrotation
											End Site
											{
												OFFSET	1	0	0
											}
										}
									}
								}
							}
						}
					}
					JOINT right_clavicle
					{
						OFFSET	43.2	22.4	-70.8
						CHANNELS 3  Xrotation Yrotation Zrotation
						JOINT right_shoulder
						{
							OFFSET	93.9	-5.79999	48.7
							CHANNELS 3  Xrotation Yrotation Zrotation
							JOINT right_elbow
							{
								OFFSET	291.4	-30.8	15.2
								CHANNELS 3  Xrotation Yrotation Zrotation
								JOINT right_lowarm_twist
								{
									OFFSET	110.7	-3.89999	13.6
									CHANNELS 3  Xrotation Yrotation Zrotation
									JOINT right_hand
									{
										OFFSET	110.7	-3.89999	13.6
										CHANNELS 3  Xrotation Yrotation Zrotation
										JOINT right_ee
										{
											OFFSET	80.8	-5.10001	12.1
											CHANNELS 3  Xrotation Yrotation Zrotation
											End Site
											{
												OFFSET	1	0	0
											}
										}
									}
								}
							}
						}
					}
				}
			}
		}
	}
	JOINT left_hip
	{
		OFFSET	-82.8	-127.5	0.300001
		CHANNELS 3  Xrotation Yrotation Zrotation
		JOINT left_knee
		{
			OFFSET	-28.2	-396.7	2.2
			CHANNELS 3  Xrotation Yrotation Zrotation
			JOINT left_ankle
			{
				OFFSET	-11.7	-411.3	35.4
				CHANNELS 3  Xrotation Yrotation Zrotation
				JOINT left_toes
				{
					OFFSET	0	-60	-88.6
					CHANNELS 3  Xrotation Yrotation Zrotation
					JOINT left_foot_ee
					{
						OFFSET	-22.5	-16.5	-42.2
						CHANNELS 3  Xrotation Yrotation Zrotation
						End Site
						{
							OFFSET	1	0	0
						}
					}
				}
			}
		}
	}
	JOINT right_hip
	{
		OFFSET	82.8	-127.5	0.300001
		CHANNELS 3  Xrotation Yrotation Zrotation
		JOINT right_knee
		{
			OFFSET	28.2	-396.7	2.2
			CHANNELS 3  Xrotation Yrotation Zrotation
			JOINT right_ankle
			{
				OFFSET	11.7	-411.3	35.4
				CHANNELS 3  Xrotation Yrotation Zrotation
				JOINT right_toes
				{
					OFFSET	0	-60	-88.6
					CHANNELS 3  Xrotation Yrotation Zrotation
					JOINT right_foot_ee
					{
						OFFSET	22.5	-16.5	-42.2
						CHANNELS 3  Xrotation Yrotation Zrotation
						End Site
						{
							OFFSET	1	0	0
						}
					}
				}
			}
		}
	}
}
MOTION
Frames: 8
Frame Time: 0.02
812.983 710.161 -1501.41 -61.3203 88.1899 57.2905 1.533 0.579905 1.98625 1.53508 0.452366 2.01911 1.55143 0.0740379 2.06782 1.54569 0.399614 2.0302 -20.3475 3.63606 0.595173 -20.4124 6.71311 2.09463 -0.0 0.0 -0.0 -4.12389 0.0169248 -8.02279 -15.5861 -30.7245 80.339 0.388075 -10.882 0.0369644 -30.2393 -1.97788 3.27525 4.89202 12.0681 39.3023 -0.0 0.0 -0.0 10.3117 -1.16644 -20.2332 -16.1779 25.2491 -49.6483 1.70465 40.1755 -0.623441 12.7318 -0.271764 1.60034 -0.522335 21.939 12.8147 0.0 0.0 0.0 25.9804 -10.5928 5.83182 -14.068 0.31913 2.12992 22.5981 17.2864 -3.09822 -40.2882 0.0 0.0 -0.0 0.0 -0.0 -8.79675 6.65959 1.78764 -8.19991 -0.249761 -1.23258 42.0807 -13.9518 5.09883 -2.79973 0.0 0.0 0.0 0.0 0.0 
795.824 712.686 -1496.5 -45.419 88.8064 41.1447 1.39903 0.565753 2.10834 1.4014 0.430479 2.14005 1.418 0.0252171 2.18275 1.41154 0.369545 2.1514 -18.767 3.92079 -0.0790971 -18.8414 7.59109 1.48249 -0.0 0.0 -0.0 -3.90884 -1.45548 -7.876 -15.0037 -31.2028 79.8726 0.423646 -11.8524 0.0439755 -29.9146 -1.94789 3.24636 4.96064 11.6008 39.7467 -0.0 0.0 -0.0 10.222 -0.875542 -20.066 -16.8718 24.0714 -51.0253 1.61458 38.6505 -0.566251 13.3131 -0.275624 1.67448 -0.638562 22.3693 13.7722 0.0 0.0 0.0 24.7888 -11.1444 4.78785 -13.3895 0.315813 2.02586 21.4093 17.1819 -2.9502 -40.2988 0.0 0.0 -0.0 0.0 -0.0 -9.22748 6.80251 2.57605 -8.22793 -0.250311 -1.23685 42.271 -13.5112 5.10873 -2.92786 0.0 0.0 0.0 0.0 0.0 
782.081 717.797 -1492.46 -35.1288 88.919 31.3071 1.11643 0.55921 1.88414 1.1183 0.438207 1.91589 1.13357 0.0647301 1.96428 1.12838 0.374081 1.92943 -21.2895 4.3016 0.0773516 -21.3977 8.26161 1.97135 -0.0 0.0 -0.0 -3.45089 -3.11602 -7.25677 -13.6433 -31.6542 78.267 0.459563 -12.8252 0.051651 -29.6668 -1.92512 3.22419 5.02341 11.2803 40.1878 -0.0 0.0 -0.0 10.2721 1.91101 -20.3079 -17.3273 23.1409 -52.1569 1.32252 33.2287 -0.394638 14.2932 -0.28043 1.79957 -0.735494 22.4553 14.4606 0.0 0.0 0.0 24.1792 -11.5384 4.7661 -15.734 0.322045 2.3855 19.9258 17.0319 -2.76253 -40.3197 0.0 0.0 -0.0 0.0 -0.0 -9.45823 6.83825 1.77662 -9.16933 -0.267554 -1.38028 41.4034 -13.2854 5.03186 -3.2022 0.0 0.0 0.0 0.0 0.0 
764.516 721.862 -1494.64 96.821 89.2052 -99.3298 0.79542 0.503512 1.69502 0.796932 0.39465 1.72361 0.809456 0.0486267 1.76754 0.805245 0.327123 1.73769 -21.4678 4.81328 0.00362703 -21.6068 9.28494 2.1475 -0.0 0.0 -0.0 -3.21307 -3.60865 -6.86145 -12.7894 -31.7048 77.2449 0.479291 -13.3564 0.0561193 -29.6625 -1.92472 3.22381 5.03855 11.0297 40.2414 -0.0 0.0 -0.0 9.99684 3.27889 -19.775 -17.8353 22.2978 -53.1277 1.2096 30.9289 -0.334655 15.1694 -0.282914 1.91146 -0.861877 22.3845 15.2867 0.0 0.0 0.0 21.8568 -11.9028 4.82591 -16.4381 0.321043 2.49353 17.5564 16.9331 -2.45767 -40.2347 0.0 0.0 -0.0 0.0 -0.0 -9.54266 6.88849 2.02225 -11.4484 -0.299524 -1.72849 41.86 -12.9237 5.06624 -3.02626 0.0 0.0 0.0 0.0 0.0 
751.771 725.368 -1488.12 56.2204 88.5981 -59.4264 0.654837 0.468271 1.57898 0.65615 0.366861 1.60557 0.667053 0.0404468 1.64644 0.663395 0.29993 1.61941 -22.4955 4.77037 0.120477 -22.6405 9.14971 2.32294 -0.0 0.0 -0.0 -2.81618 -4.53063 -6.21036 -11.4672 -31.9691 76.3156 0.502165 -13.9694 0.0615226 -29.5079 -1.91057 3.20993 5.08287 10.8882 40.581 -0.0 0.0 -0.0 10.1482 4.33647 -20.1238 -18.7755 20.9738 -53.9921 1.07688 28.0771 -0.269273 15.6538 -0.283552 1.97333 -0.881318 22.3655 15.4108 0.0 0.0 0.0 20.9031 -12.1253 4.9433 -17.1973 0.318475 2.60999 17.5711 16.9114 -2.45941 -40.26 0.0 0.0 -0.0 0.0 -0.0 -9.56039 7.08872 1.82926 -10.9764 -0.294041 -1.65628 41.8046 -12.96 5.06199 -3.06463 0.0 0.0 0.0 0.0 0.0 
735.94 727.159 -1487.58 143.969 86.8482 -146.52 0.564131 0.458034 1.5236 0.565351 0.360166 1.54965 0.575711 0.0424613 1.59038 0.572301 0.293068 1.56373 -20.1974 5.70763 2.4456 -20.3175 9.77309 4.68254 -0.0 0.0 -0.0 -2.2639 -6.0269 -5.31897 -11.9564 -33.4742 73.3174 0.546946 -15.16 0.0727843 -29.5051 -1.91031 3.20968 4.94641 10.6305 39.3279 -0.0 0.0 -0.0 10.2407 5.13886 -20.3392 -20.5349 20.0645 -55.6468 0.834974 22.4709 -0.165869 17.4752 -0.281274 2.20594 -0.926475 22.9513 15.9514 0.0 0.0 0.0 19.4365 -12.6937 5.14176 -17.7529 0.315618 2.69517 17.4381 14.4801 -2.42699 -39.3879 0.0 0.0 -0.0 0.0 -0.0 -9.50663 6.28918 1.59021 -13.7777 -0.317862 -2.08539 41.5694 -14.0247 5.05621 -2.3522 0.0 0.0 0.0 0.0 0.0 
719.418 729.433 -1484.8 149.442 84.8239 -151.859 0.442284 0.492087 1.53645 0.443512 0.393334 1.56464 0.454948 0.0685704 1.61185 0.451466 0.322239 1.58081 -20.3633 5.7229 2.57374 -20.4825 9.74677 4.82365 -0.0 0.0 -0.0 -1.9526 -6.92321 -4.81371 -11.8533 -34.5653 70.767 0.672972 -18.4369 0.109221 -29.3529 -1.89641 3.19598 4.76377 10.3403 37.7009 -0.0 0.0 -0.0 10.103 6.99407 -20.0672 -22.7019 19.1667 -57.3595 0.669355 18.3445 -0.10808 18.2148 -0.278237 2.30036 -0.887546 24.4622 16.288 0.0 0.0 0.0 17.0251 -13.4057 5.29176 -17.8892 0.31479 2.71608 18.9603 10.5315 -2.60535 -38.1617 0.0 0.0 -0.0 0.0 -0.0 -7.48861 4.5545 1.00947 -21.0051 -0.282337 -3.19301 41.5406 -14.5934 5.06211 -1.54392 0.0 0.0 0.0 0.0 0.0 
700.314 724.35 -1481.05 157.334 82.1646 -159.48 0.290581 0.204799 1.33836 0.291569 0.119229 1.34868 0.294822 -0.159996 1.34445 0.292304 0.0543221 1.35284 -20.6553 6.18669 -0.899976 -20.8885 12.3769 1.84794 -0.0 0.0 -0.0 -2.07904 -6.47431 -5.00738 -9.83096 -33.6121 68.5132 0.932395 -24.791 0.204928 -27.5853 -1.7377 3.03423 3.88273 9.28143 30.3837 -0.0 0.0 -0.0 9.94261 7.13706 -19.7215 -24.2818 17.9585 -58.602 0.556678 15.417 -0.0753505 20.6511 -0.259622 2.61096 -0.730639 28.571 16.8434 0.0 0.0 0.0 12.0314 -13.8042 4.97152 -10.8904 0.292978 1.64313 19.747 4.15216 -2.70295 -38.0004 0.0 0.0 -0.0 0.0 -0.0 -7.54933 4.19818 0.765026 -25.2201 -0.197277 -3.83407 41.2952 -13.7086 5.02817 1.18499 -0.0 -0.0 0.0 0.0 0.0 
